<svg xmlns="http://www.w3.org/2000/svg" width="540" height="960" viewBox="0 0 540 960" preserveAspectRatio="xMidYMid slice">
  <!--
    Y2K purple checker + ink splatter — matches Pinterest reference
    template 1 (DVD-Vibes purple checker with grunge black splatter).
    Deep-purple/black checkerboard with randomized ink blots and
    a film-grain overlay.
  -->
  <defs>
    <pattern id="pc-check" x="0" y="0" width="120" height="120" patternUnits="userSpaceOnUse">
      <rect x="0"   y="0"   width="60" height="60" fill="#4a1472"/>
      <rect x="60"  y="0"   width="60" height="60" fill="#0a0510"/>
      <rect x="0"   y="60"  width="60" height="60" fill="#0a0510"/>
      <rect x="60"  y="60"  width="60" height="60" fill="#4a1472"/>
    </pattern>
    <filter id="pc-grain">
      <feTurbulence type="fractalNoise" baseFrequency="1.3" numOctaves="2" stitchTiles="stitch"/>
      <feColorMatrix values="0 0 0 0 1  0 0 0 0 1  0 0 0 0 1  0 0 0 0.16 0"/>
    </filter>
  </defs>
  <rect width="540" height="960" fill="url(#pc-check)"/>
  <!-- ink splatter blots — irregular black blobs -->
  <g fill="#0a0510" opacity="0.85">
    <path d="M40 70
             c 10 -14, 40 -12, 52 0
             c 14 10, 6 32, -10 36
             c -22 6, -40 -2, -46 -14
             c -6 -10, -2 -18, 4 -22 Z"/>
    <path d="M430 40
             c 16 -4, 28 4, 30 20
             c 2 14, -8 22, -22 22
             c -18 0, -26 -10, -22 -22
             c 4 -12, 10 -18, 14 -20 Z"/>
    <path d="M130 480
             c 28 -10, 54 6, 48 28
             c -6 18, -34 20, -52 10
             c -20 -12, -16 -30, 4 -38 Z"/>
    <path d="M460 560
             c 22 -6, 38 10, 30 28
             c -10 20, -36 12, -38 0
             c -2 -14, 0 -24, 8 -28 Z"/>
    <path d="M70 820
             c 20 -14, 46 -4, 48 16
             c 2 20, -22 28, -42 22
             c -22 -8, -24 -24, -6 -38 Z"/>
    <!-- tiny scatter drops -->
    <circle cx="200" cy="120" r="3"/>
    <circle cx="220" cy="140" r="1.5"/>
    <circle cx="380" cy="680" r="2.4"/>
    <circle cx="400" cy="700" r="1.2"/>
    <circle cx="300" cy="900" r="3"/>
    <circle cx="280" cy="920" r="1.5"/>
  </g>
  <rect width="540" height="960" filter="url(#pc-grain)" opacity="0.7"/>
</svg>
